# xmcd CD database file
#
# Track frame offsets:
#	182
#	12200
#	24394
#	35719
#	49191
#	64310
#	77013
#	88615
#	102507
#	115512
#	128894
#	141494
#	154859
#	168515
#	182563
#	196391
#	209266
#	223169
#	236013
#	248797
#	261537
#	273366
#	286140
#	299816
#
# Disc length: 4159 seconds
#
# Revision: 1
# Processed by: cddbd v1.5.2PL0 Copyright (c) Steve Scherf et al.
# Submitted via: CDex 1.70beta2
#
DISCID=72103d18
DTITLE=Various Artist - Classics Complementary Tracks - Classics - D3
DYEAR=1924
DGENRE=Swing
TTITLE0=I Would Do Anything for You
TTITLE1=Tiger Rag
TTITLE2=Bugs Parade
TTITLE3=Wall Street Wail
TTITLE4=Poor Lil' Me
TTITLE5=Are You Hep to the Jive?
TTITLE6=All the Time
TTITLE7=On the Sentimental Side
TTITLE8=Pete's Lonesome Blues
TTITLE9=Mr. Drums Meets Mr. Piano
TTITLE10=Mutiny in the Doghouse
TTITLE11=Mr. Clarinet Knocks Twice
TTITLE12=Ben Rides Out
TTITLE13=Page Mr. Trumpet
TTITLE14=J.C. from K.C.
TTITLE15=Pete's Housewarming Blues
TTITLE16=It's Been So Long
TTITLE17=I'd Rather Lead a Band
TTITLE18=Let Yourself Go
TTITLE19=A Melody from the Sky
TTITLE20=Rhythm Saved the World
TTITLE21=I Nearky Let Love Go Slipping Thru' My Fingers
TTITLE22=But Definitely
TTITLE23=If I Had My Way
EXTD=YEAR: 1924
EXTT0=
EXTT1=
EXTT2=
EXTT3=
EXTT4=
EXTT5=
EXTT6=
EXTT7=
EXTT8=
EXTT9=
EXTT10=
EXTT11=
EXTT12=
EXTT13=
EXTT14=
EXTT15=
EXTT16=
EXTT17=
EXTT18=
EXTT19=
EXTT20=
EXTT21=
EXTT22=
EXTT23=
PLAYORDER=
